<?xml version="1.0" encoding="UTF-8" standalone="no"?>
<!-- Created with Inkscape (http://www.inkscape.org/) -->

<svg
   width="1024"
   height="1024"
   viewBox="0 0 270.93333 270.93333"
   version="1.1"
   id="svg5"
   xml:space="preserve"
   inkscape:version="1.2.2 (732a01da63, 2022-12-09)"
   sodipodi:docname="spie.svg"
   xmlns:inkscape="http://www.inkscape.org/namespaces/inkscape"
   xmlns:sodipodi="http://sodipodi.sourceforge.net/DTD/sodipodi-0.dtd"
   xmlns="http://www.w3.org/2000/svg"
   xmlns:svg="http://www.w3.org/2000/svg"><sodipodi:namedview
     id="namedview7"
     pagecolor="#770000"
     bordercolor="#000000"
     borderopacity="0.25"
     inkscape:showpageshadow="2"
     inkscape:pageopacity="0"
     inkscape:pagecheckerboard="0"
     inkscape:deskcolor="#d1d1d1"
     inkscape:document-units="mm"
     showgrid="true"
     inkscape:zoom="0.32346812"
     inkscape:cx="-490.00192"
     inkscape:cy="-355.5219"
     inkscape:window-width="3840"
     inkscape:window-height="2054"
     inkscape:window-x="3829"
     inkscape:window-y="-11"
     inkscape:window-maximized="1"
     inkscape:current-layer="layer8" /><defs
     id="defs2" /><g
     inkscape:groupmode="layer"
     id="layer2"
     inkscape:label="bg"
     style="display:inline"
     sodipodi:insensitive="true"><rect
       style="display:inline;fill:#0054e9;fill-opacity:1;stroke-width:0.911105"
       id="rect362-1-2"
       width="244.47498"
       height="244.47498"
       x="13.229187"
       y="13.229179"
       ry="47.74902"
       inkscape:label="bg" /></g><g
     inkscape:groupmode="layer"
     id="layer10"
     inkscape:label="bottom shadow"
     style="display:inline"><path
       id="rect362-1-2-9"
       style="display:inline;opacity:0.22;fill:#000000;fill-opacity:1;stroke-width:0.911105"
       inkscape:label="bg"
       d="m 106.41004,20.108333 c -5.30697,0.0015 -10.002865,2.995845 -11.613759,7.405233 l -0.02377,-0.0098 -20.436479,48.128328 c -24.911925,5.154285 -39.502516,13.111365 -39.506116,21.544938 0,2.443394 1.201159,4.812168 3.454053,7.064168 l 62.672661,62.67266 h -0.966867 c -5.377982,0 -9.707417,4.32994 -9.707417,9.70794 v 43.46504 c 0,0.17 0.0043,0.3384 0.01292,0.5054 0.1315,5.43497 2.372698,10.32776 5.939689,13.89476 l 23.217185,23.21719 h 90.503 c 26.45293,0 47.74903,-21.2961 47.74903,-47.74903 V 106.15993 L 175.29886,23.754622 c -2.266,-2.265491 -5.58607,-3.645289 -9.18807,-3.646289 -1.87767,3.98e-4 -3.73024,0.379603 -5.41259,1.10691 l -0.0904,-0.09043 -0.7829,0.506429 c -0.67,0.351697 -1.29999,0.758732 -1.87999,1.215429 0,0 -15.06501,11.8121 -21.68498,11.9016 -6.61997,0.0255 -21.68498,-11.9016 -21.68498,-11.9016 -0.58,-0.456797 -1.20999,-0.863732 -1.87999,-1.215429 l -0.7829,-0.506429 -0.0651,0.100769 c -1.689,-0.734397 -3.54988,-1.116845 -5.43688,-1.117245 z" /></g><g
     inkscape:groupmode="layer"
     id="layer4"
     inkscape:label="hat"
     style="display:inline"><path
       id="path541-0-4"
       style="display:inline;fill:#ffffff;stroke-width:0.268414"
       d="m 106.40953,20.108333 c -5.30635,0.0015 -10.002289,2.995891 -11.613249,7.405233 l -0.02377,-0.0098 -20.436479,48.128328 c -24.912069,5.154322 -39.502492,13.111305 -39.506117,21.54492 2.9e-5,15.035506 45.488364,27.224186 101.601035,27.224176 56.11267,1e-5 101.601,-12.18867 101.60103,-27.224176 -3.1e-4,-8.479176 -14.74484,-16.474179 -39.88128,-21.625036 l -20.40289,-48.04823 -0.0238,0.0098 c -1.61096,-4.409342 -6.3069,-7.403726 -11.61325,-7.405233 -1.88718,4.1e-4 -3.74849,0.382862 -5.43739,1.117245 l -0.0651,-0.100769 -0.78341,0.506429 c -0.6699,0.351636 -1.29946,0.758653 -1.87999,1.215429 0,0 -15.06462,11.812153 -21.68497,11.901617 -6.62035,0.02556 -21.68446,-11.901599 -21.68446,-11.901599 -0.58053,-0.456776 -1.21009,-0.863793 -1.87999,-1.215429 l -0.78342,-0.506429 -0.0651,0.100769 c -1.6889,-0.734383 -3.55021,-1.116835 -5.43739,-1.117245 z"
       sodipodi:nodetypes="sccccsccccccccccccccss"
       inkscape:label="hat" /><path
       id="path541-5"
       style="display:inline;opacity:1;fill:#0163aa;fill-opacity:1;stroke-width:0.225877"
       d="m 79.299552,63.94235 -6.644038,15.647107 a 71.949989,27.22419 0 0 0 63.775436,14.649235 71.949989,27.22419 0 0 0 63.51292,-14.4632 L 193.28019,64.081877 A 71.949989,27.22419 0 0 1 136.43095,74.659526 71.949989,27.22419 0 0 1 79.299552,63.94235 Z"
       inkscape:label="rim" /><g
       inkscape:groupmode="layer"
       id="layer5"
       inkscape:label="details"
       style="display:inline"><path
         style="font-variation-settings:normal;vector-effect:none;fill:#ffffff;fill-opacity:1;stroke-width:0.22468;stroke-linecap:butt;stroke-linejoin:miter;stroke-miterlimit:4;stroke-dasharray:none;stroke-dashoffset:0;stroke-opacity:1;-inkscape-stroke:none;stop-color:#000000"
         d="m 156.06776,32.345766 c 0,0 5.87181,-6.493425 8.19968,0.621712 0.8497,2.597099 1.89776,6.094712 3.10455,9.117224 2.09941,5.258104 4.87125,9.476877 4.87125,9.476877 0,0 -10.47739,0.817094 -14.09081,-9.337518 -1.36415,-3.833591 -1.98718,-6.182017 -2.25273,-7.616941 -0.28918,-1.562457 0.16806,-2.261354 0.16806,-2.261354 z"
         id="path1428-1-6"
         sodipodi:nodetypes="csscssc" /><path
         style="font-variation-settings:normal;opacity:1;vector-effect:none;fill:#808080;fill-opacity:1;stroke-width:0.234455;stroke-linecap:butt;stroke-linejoin:miter;stroke-miterlimit:4;stroke-dasharray:none;stroke-dashoffset:0;stroke-opacity:1;-inkscape-stroke:none;stop-color:#000000"
         d="m 158.00135,32.507944 c 0,0 6.10919,-6.796008 8.53117,0.650682 0.88405,2.71812 1.97447,6.378716 3.23005,9.542072 2.18428,5.503123 5.06818,9.918483 5.06818,9.918483 0,0 -10.90096,0.855169 -14.66045,-9.77263 -1.4193,-4.01223 -2.06752,-6.470089 -2.34381,-7.971878 -0.30087,-1.635265 0.17486,-2.366729 0.17486,-2.366729 z"
         id="path1428-1"
         sodipodi:nodetypes="csscssc" /><path
         style="font-variation-settings:normal;opacity:1;vector-effect:none;fill:#808080;fill-opacity:1;stroke-width:0.234455;stroke-linecap:butt;stroke-linejoin:miter;stroke-miterlimit:4;stroke-dasharray:none;stroke-dashoffset:0;stroke-opacity:1;-inkscape-stroke:none;stop-color:#000000;stop-opacity:1"
         d="m 114.23077,32.507944 c 0,0 -6.10918,-6.796008 -8.53116,0.650682 -0.88405,2.71812 -1.97447,6.378716 -3.23005,9.542072 -2.18428,5.503123 -5.068177,9.918483 -5.068177,9.918483 0,0 10.900957,0.855169 14.660447,-9.77263 1.41929,-4.01223 2.06751,-6.470089 2.3438,-7.971878 0.30086,-1.635265 -0.17486,-2.366729 -0.17486,-2.366729 z"
         id="path1428"
         sodipodi:nodetypes="csscssc" /></g></g><g
     inkscape:groupmode="layer"
     id="layer6"
     inkscape:label="usb"
     style="display:inline"><rect
       style="font-variation-settings:normal;display:inline;opacity:1;vector-effect:none;fill:#ffffff;fill-opacity:1;stroke:none;stroke-width:0.240746;stroke-linecap:butt;stroke-linejoin:miter;stroke-miterlimit:4;stroke-dasharray:none;stroke-dashoffset:0;stroke-opacity:1;-inkscape-stroke:none;stop-color:#000000;stop-opacity:1"
       id="rect3806"
       width="25.321613"
       height="29.496103"
       x="123.98997"
       y="231.32895"
       inkscape:label="cable" /><g
       inkscape:groupmode="layer"
       id="layer8"
       inkscape:label="body"
       style="display:inline"><path
         id="rect2854"
         style="font-variation-settings:normal;display:inline;opacity:1;vector-effect:none;fill:#6030ff;fill-opacity:1;stroke-width:0.425116;stroke-linecap:butt;stroke-linejoin:miter;stroke-miterlimit:4;stroke-dasharray:none;stroke-dashoffset:0;stroke-opacity:1;-inkscape-stroke:none;stop-color:#000000;stop-opacity:1"
         d="m 99.989762,166.91436 c -5.377984,0 -9.707417,4.32995 -9.707417,9.70793 v 43.46505 c 0,0.1693 0.0044,0.33776 0.01292,0.50488 0.266998,11.03304 9.228368,19.83652 20.327955,19.83652 h 51.95187 c 11.26891,0 20.34088,-9.07249 20.34088,-20.3414 v -43.46505 c 0,-5.37798 -4.32995,-9.70793 -9.70794,-9.70793 z" /><path
         id="rect2854-0"
         style="font-variation-settings:normal;display:inline;opacity:1;vector-effect:none;fill:#ffffff;fill-opacity:1;stroke-width:0.369384;stroke-linecap:butt;stroke-linejoin:miter;stroke-miterlimit:4;stroke-dasharray:none;stroke-dashoffset:0;stroke-opacity:1;-inkscape-stroke:none;stop-color:#000000"
         d="m 103.85944,172.64007 c -4.809521,0 -8.681325,3.65547 -8.681325,8.19571 v 36.69445 c 0,0.14294 0.0039,0.28515 0.01155,0.42624 0.238776,9.31441 8.252915,16.74656 18.179255,16.74656 h 46.46047 c 10.07776,0 18.19081,-7.65925 18.19081,-17.1728 v -36.69445 c 0,-4.54024 -3.87227,-8.19571 -8.68179,-8.19571 z" /></g><g
       inkscape:groupmode="layer"
       id="layer9"
       inkscape:label="symbol"
       style="display:inline"
       transform="translate(2.5561187,-0.61460541)"><path
         id="rect3722"
         style="font-variation-settings:normal;opacity:1;vector-effect:none;fill:#0163aa;fill-opacity:1;stroke:none;stroke-width:0.186588;stroke-linecap:butt;stroke-linejoin:miter;stroke-miterlimit:4;stroke-dasharray:none;stroke-dashoffset:0;stroke-opacity:1;-inkscape-stroke:none;stop-color:#000000;stop-opacity:1"
         d="m 234.56485,-26.917737 -4e-4,12.018914 12.01882,-12.018812 z"
         transform="matrix(0.51283825,0.85848525,-0.51283825,0.85848525,0,0)"
         sodipodi:nodetypes="cccc" /><rect
         style="font-variation-settings:normal;opacity:1;vector-effect:none;fill:#0163aa;fill-opacity:1;stroke:none;stroke-width:0.222043;stroke-linecap:butt;stroke-linejoin:miter;stroke-miterlimit:4;stroke-dasharray:none;stroke-dashoffset:0;stroke-opacity:1;-inkscape-stroke:none;stop-color:#000000;stop-opacity:1"
         id="rect3729"
         width="8.2307024"
         height="8.2307024"
         x="146.40169"
         y="190.78868" /><circle
         style="font-variation-settings:normal;opacity:1;vector-effect:none;fill:#0163aa;fill-opacity:1;stroke:none;stroke-width:0.276765;stroke-linecap:butt;stroke-linejoin:miter;stroke-miterlimit:4;stroke-dasharray:none;stroke-dashoffset:0;stroke-opacity:1;-inkscape-stroke:none;stop-color:#000000;stop-opacity:1"
         id="path3731"
         cx="119.65311"
         cy="201.00261"
         r="4.0965509" /><circle
         style="font-variation-settings:normal;display:inline;opacity:1;vector-effect:none;fill:#0163aa;fill-opacity:1;stroke:none;stroke-width:0.420858;stroke-linecap:butt;stroke-linejoin:miter;stroke-miterlimit:4;stroke-dasharray:none;stroke-dashoffset:0;stroke-opacity:1;-inkscape-stroke:none;stop-color:#000000"
         id="path3731-1"
         cx="134.09465"
         cy="225.71422"
         r="6.2293406" /><rect
         style="font-variation-settings:normal;opacity:1;vector-effect:none;fill:#0163aa;fill-opacity:1;stroke:none;stroke-width:0.234455;stroke-linecap:butt;stroke-linejoin:miter;stroke-miterlimit:4;stroke-dasharray:none;stroke-dashoffset:0;stroke-opacity:1;-inkscape-stroke:none;stop-color:#000000;stop-opacity:1"
         id="rect3758"
         width="4.1920347"
         height="34.456482"
         x="131.9861"
         y="187.19514" /><path
         id="rect3758-9"
         style="display:inline;opacity:1;vector-effect:none;fill:#0163aa;stroke-width:0.17568;stop-color:#000000;fill-opacity:1"
         d="m 148.50063,197.93047 h 4.19203 c -0.0181,7.19365 -2.29265,11.97097 -11.94443,13.85072 -2.7654,1.01217 -4.31706,1.7631 -4.5701,2.90179 -0.23497,-0.18074 0,-5.52176 0,-5.52176 0,0 1.34465,-0.70967 2.6338,-1.08786 8.33234,-1.51826 9.6887,-2.80465 9.6887,-10.14289 z"
         sodipodi:nodetypes="ccccccc" /><path
         id="rect3758-9-2"
         style="display:inline;opacity:1;vector-effect:none;fill:#0163aa;stroke-width:0.169668;stop-color:#000000;fill-opacity:1"
         d="m 117.52095,201.94301 h 4.19204 l 0.012,0.0136 c -0.21731,11.82204 0.17148,9.05968 7.37974,10.72116 2.27803,0.62325 2.88135,0.88396 2.88135,0.88396 v 5.51869 c 0,0 0.26823,-1.71965 -4.80311,-2.48368 -10.48009,-0.99688 -9.66204,-7.29211 -9.66204,-14.65373 z"
         sodipodi:nodetypes="ccccccccc" /></g><g
       inkscape:groupmode="layer"
       id="layer7"
       inkscape:label="connector"><rect
         style="font-variation-settings:normal;display:inline;opacity:1;vector-effect:none;fill:#ffffff;fill-opacity:1;stroke-width:0.246736;stroke-linecap:butt;stroke-linejoin:miter;stroke-miterlimit:4;stroke-dasharray:none;stroke-dashoffset:0;stroke-opacity:1;-inkscape-stroke:none;stop-color:#000000;stop-opacity:1"
         id="rect2797"
         width="55.621143"
         height="34.200867"
         x="108.78841"
         y="132.71368"
         ry="0" /><rect
         style="font-variation-settings:normal;display:inline;opacity:1;vector-effect:none;fill:#0163aa;fill-opacity:1;stroke-width:0.234455;stroke-linecap:butt;stroke-linejoin:miter;stroke-miterlimit:4;stroke-dasharray:none;stroke-dashoffset:0;stroke-opacity:1;-inkscape-stroke:none;stop-color:#000000;stop-opacity:1"
         id="rect2821"
         width="12.06488"
         height="9.4065161"
         x="116.61014"
         y="146.10774" /><rect
         style="font-variation-settings:normal;display:inline;vector-effect:none;fill:#0163aa;fill-opacity:1;stroke-width:0.234455;stroke-linecap:butt;stroke-linejoin:miter;stroke-miterlimit:4;stroke-dasharray:none;stroke-dashoffset:0;stroke-opacity:1;-inkscape-stroke:none;stop-color:#000000"
         id="rect2821-4"
         width="12.06488"
         height="9.4065161"
         x="144.65573"
         y="146.10774" /></g></g><g
     inkscape:groupmode="layer"
     id="layer11"
     inkscape:label="top shadow"><path
       id="rect2854-0-5"
       style="display:inline;font-variation-settings:normal;opacity:0.22;vector-effect:none;fill:#000000;fill-opacity:1;stroke-width:0.369383;stroke-linecap:butt;stroke-linejoin:miter;stroke-miterlimit:4;stroke-dasharray:none;stroke-dashoffset:0;stroke-opacity:1;-inkscape-stroke:none;stop-color:#000000"
       d="m 166.48233,172.64057 c 0.27502,0.88076 0.4253,1.82098 0.4253,2.79931 v 40.36986 c 0,10.46655 -8.11288,18.89329 -18.19062,18.89329 h 8.99583 c 0.26865,0 0.53524,-0.009 0.80099,-0.019 0.16544,-0.006 0.33029,-0.0166 0.49454,-0.0284 0.0464,-0.003 0.0927,-0.005 0.13901,-0.0107 9.40202,-0.75501 16.75608,-8.87098 16.75608,-18.83593 v -34.97306 c 0,-4.54022 -3.87212,-8.19582 -8.68164,-8.19582 z"
       inkscape:label="usb body" /><rect
       style="display:inline;font-variation-settings:normal;opacity:0.22;vector-effect:none;fill:#000000;fill-opacity:1;stroke-width:0.166258;stroke-linecap:butt;stroke-linejoin:miter;stroke-miterlimit:4;stroke-dasharray:none;stroke-dashoffset:0;stroke-opacity:1;-inkscape-stroke:none;stop-color:#000000"
       id="rect2797-0"
       width="25.254456"
       height="34.200867"
       x="136.59898"
       y="132.71368"
       ry="0"
       inkscape:label="usb connector" /><path
       id="path541-0-60"
       style="display:inline;opacity:0.22;fill:#000000;stroke-width:0.268414"
       inkscape:transform-center-x="61.878011"
       inkscape:transform-center-y="-3.3618549"
       d="m 163.02571,27.331665 c -1.88718,4.1e-4 -3.7485,0.382862 -5.4374,1.117245 l -0.0651,-0.10077 -0.78341,0.506429 c -0.6699,0.351636 -1.29946,0.758657 -1.87999,1.21543 0,0 -10.70837,8.396526 -18.03611,11.084595 v 52.412305 l 25.79532,22.959841 c 40.6276,-2.29833 70.3838,-9.72987 70.38382,-18.546674 -2.9e-4,-5.999239 -14.04149,-11.655786 -37.98011,-15.305009 l -20.36,-47.947978 -0.0238,0.0098 c -1.61096,-4.40933 -6.30692,-7.403726 -11.61324,-7.405233 z"
       inkscape:label="hat" /></g><g
     inkscape:groupmode="layer"
     id="layer3"
     inkscape:label="frame"
     style="display:inline"><path
       id="rect362"
       style="display:inline;opacity:1;fill:#ffffff;stroke-width:1.00971"
       d="M 52.916667,0 C 23.600864,0 0,23.600864 0,52.916667 V 218.01667 c 0,29.3158 23.600864,52.91666 52.916667,52.91666 H 218.01667 c 29.3158,0 52.91666,-23.60086 52.91666,-52.91666 V 52.916667 C 270.93333,23.600864 247.33247,0 218.01667,0 Z m 8.061523,13.229167 h 148.97695 c 26.45293,0 47.74903,21.296093 47.74903,47.749023 v 148.97695 c 0,26.45293 -21.2961,47.74903 -47.74903,47.74903 H 60.97819 c -26.45293,0 -47.749023,-21.2961 -47.749023,-47.74903 V 60.97819 c 0,-26.45293 21.296093,-47.749023 47.749023,-47.749023 z"
       inkscape:label="frame" /></g></svg>
